<svg width="146" height="91" viewBox="0 0 146 91" fill="none" xmlns="http://www.w3.org/2000/svg">
<path d="M145.992 56.9787C145.315 56.9787 144.638 56.9652 143.961 56.9922C143.284 57.0193 142.945 56.8044 142.976 56.0275C143.03 54.1658 142.993 52.304 142.993 50.4558V49.4759H123.158C123.143 49.7822 123.114 50.0784 123.114 50.3746C123.114 52.3176 123.091 54.2589 123.124 56.2019C123.135 56.7959 122.928 56.9753 122.353 56.9956C120.122 57.0752 120.122 57.0904 120.122 54.8479C120.122 49.2457 120.048 43.6436 120.159 38.0448C120.202 35.9292 120.824 33.8881 122.507 32.3648C123.014 31.9079 123.541 31.6184 124.263 31.6201C130.184 31.6393 136.108 31.6393 142.035 31.6201C142.438 31.6192 142.837 31.7102 143.2 31.8861C143.564 32.0621 143.882 32.3184 144.132 32.6356C144.881 33.5309 145.569 34.255 145.897 35.5416C145.945 35.732 146 35.8801 146 36.0341L145.992 56.9787ZM142.991 45.8354C142.991 42.5824 143.028 39.431 142.974 36.2812C142.95 34.9763 142.156 34.323 140.882 34.323C135.722 34.323 130.558 34.3518 125.401 34.3044C124.038 34.2909 123.896 34.6768 123.456 35.6821C123.179 36.3168 123.145 37.0869 123.118 37.7994C123.074 39.4919 123.104 41.1844 123.104 42.8667V45.8354H142.991Z" fill="#0971B8"/>
<path d="M85.4003 63.4544C81.6769 71.6308 76.1881 78.1384 68.7632 83.0111C65.7167 85.0133 62.4468 86.5365 59.0178 87.7805C53.1736 89.8978 47.1382 90.4377 41.0047 90.0569C37.6967 89.8256 34.4304 89.1832 31.2813 88.1444C20.9571 84.8339 12.9381 78.5344 7.04485 69.5101C4.87169 66.1826 3.29937 62.5607 2.03846 58.778C0.0836388 52.9051 -0.243012 46.8798 0.141184 40.7953C0.34259 37.6117 1.06867 34.4959 2.03169 31.4291C4.39054 23.8201 8.74028 16.98 14.6306 11.6168C19.0311 7.5548 24.0967 4.60311 29.7259 2.50781C36.2369 0.0824674 42.9646 -0.391432 49.7464 0.273717C57.9092 1.07765 65.2259 4.2206 71.7318 9.24391C75.9973 12.5429 79.6338 16.583 82.4673 21.1709C83.2864 22.4843 83.999 23.8636 84.8554 25.3818C83.7468 25.3818 82.8244 25.4021 81.9189 25.3649C81.7649 25.3649 81.5685 25.1381 81.4788 24.9705C78.9222 20.1762 75.4604 15.9229 71.285 12.4461C67.2692 9.09723 62.661 6.53107 57.6994 4.88067C52.2445 3.05616 46.666 2.47733 40.9793 2.92415C34.9497 3.39289 29.105 5.22326 23.8851 8.2775C18.2259 11.5251 13.4056 16.0526 9.81038 21.4975C7.64691 24.7564 5.9477 28.3007 4.76168 32.0282C3.33732 36.4432 2.64497 41.0615 2.71208 45.7001C2.78103 49.5215 3.35583 53.3169 4.42149 56.9874C6.38647 63.8639 9.917 69.8113 14.8929 74.9277C18.7039 78.8378 23.254 81.9514 28.2788 84.0875C30.987 85.2316 33.8097 86.0827 36.699 86.6262C40.8502 87.4515 45.1044 87.6279 49.3097 87.1492C54.8609 86.5308 60.2267 84.7827 65.0769 82.0125C72.0771 78.0047 77.5624 72.4804 81.3011 65.3516C82.1592 63.715 83.0799 63.126 84.7657 63.4137C84.9298 63.4391 85.0991 63.4374 85.4003 63.4544Z" fill="#727070"/>
<path d="M72.7405 25.3881C71.7589 25.3881 70.7755 25.4135 69.7956 25.3695C69.5347 25.3247 69.3002 25.1833 69.1389 24.9735C66.1297 21.1972 62.2896 18.1663 57.9177 16.1167C55.0641 14.7762 52.0938 13.7472 48.9272 13.5187C46.4358 13.3393 43.9089 13.0854 41.4362 13.3071C36.5885 13.7367 31.9196 15.3462 27.8371 17.9953C22.5903 21.3803 18.6096 25.8772 15.9896 31.5471C14.7135 34.3025 13.6709 37.1526 13.4374 40.1906C13.219 43.0408 12.9668 45.9349 13.2224 48.7665C13.6608 53.6087 15.3346 58.1175 17.9614 62.2421C21.24 67.4751 25.986 71.6277 31.6079 74.1826C34.7086 75.6094 37.9531 76.5521 41.3804 76.7924C42.6988 76.8838 44.0223 77.0751 45.3357 77.0243C51.0394 76.8026 56.3741 75.3047 61.2299 72.2413C64.736 70.0385 67.7822 67.1774 70.2001 63.8161C70.3605 63.6056 70.5979 63.4674 70.8601 63.4319C71.7842 63.3879 72.7117 63.4133 73.8423 63.4133C73.0587 64.532 72.4122 65.5526 71.6675 66.497C68.1369 70.9669 63.8228 74.4517 58.6014 76.7924C55.8901 78.0093 53.0992 78.9216 50.1965 79.3633C47.0248 79.8541 43.8108 80.0911 40.612 79.5038C38.4659 79.1111 36.2758 78.8268 34.2025 78.187C30.8667 77.1433 27.7199 75.5714 24.882 73.531C20.5405 70.4494 16.9615 66.4154 14.419 61.7377C12.8376 58.8123 11.6915 55.6718 11.0171 52.4155C10.1899 48.5922 10.0103 44.6573 10.4857 40.7745C11.1342 35.2833 13.104 30.031 16.2266 25.4677C19.2641 20.9572 23.3353 17.2376 28.1011 14.6188C31.0175 13.0068 34.1534 11.8288 37.4098 11.1221C41.1613 10.2849 45.0297 10.1057 48.8426 10.5924C56.303 11.5706 62.8242 14.6425 68.2317 19.9011C69.9056 21.5292 71.373 23.369 72.9351 25.1122L72.7405 25.3881Z" fill="#727070"/>
<path d="M117.533 57.5836C117.137 56.7949 116.812 56.1213 116.464 55.4578C115.414 53.4556 114.37 51.4517 113.285 49.4681C113.143 49.2091 112.777 48.9045 112.508 48.9028C108.108 48.8723 103.707 48.8859 99.3068 48.8926C99.2244 48.9115 99.1444 48.9393 99.0681 48.9756C99.0512 49.2971 99.0174 49.6526 99.0174 50.0046C99.0174 52.0593 98.997 54.114 99.0258 56.1687C99.0258 56.7475 98.8447 57.0047 98.2625 56.9878C97.6803 56.9709 97.0456 56.9878 96.4126 56.9878C96.3889 56.5799 96.3635 56.3582 96.3635 56.1416C96.3635 49.5273 96.3212 42.9114 96.3957 36.2971C96.4109 34.9313 96.7342 33.5384 97.7497 32.4383C97.987 32.1574 98.2847 31.9337 98.6206 31.784C98.9564 31.6342 99.3217 31.5622 99.6893 31.5734C104.819 31.614 109.951 31.6225 115.081 31.6377C116.096 31.6377 116.848 32.2284 117.359 32.9646C118.423 34.498 119.156 36.0501 119.41 37.9965C119.579 39.0966 119.596 39.8784 119.515 40.7382C119.246 43.4682 118.801 46.1643 116.755 48.2698C116.668 48.3817 116.61 48.5127 116.585 48.6517C116.56 48.7907 116.569 48.9337 116.611 49.0687C117.386 50.5919 118.202 52.0982 119.04 53.5893C119.361 54.1597 119.356 54.6336 118.979 55.1819C118.498 55.8945 118.082 56.6679 117.533 57.5836ZM99.0207 45.8783H100.001C104.711 45.8783 109.421 45.858 114.131 45.8935C115.093 45.8935 115.717 45.4823 115.968 44.6597C116.347 43.414 116.709 42.1345 116.824 40.8465C116.922 39.7667 116.704 38.6463 116.536 37.5597C116.418 36.8066 116.274 36.0043 115.908 35.3595C115.741 35.0246 115.479 34.7459 115.155 34.5575C114.831 34.369 114.46 34.279 114.086 34.2983C109.49 34.3609 104.892 34.3271 100.293 34.3271C99.0935 34.3271 99.0241 34.3982 99.0224 35.6421C99.0224 37.8379 99.0224 40.0341 99.0224 42.231L99.0207 45.8783Z" fill="#0971B8"/>
<path d="M81.5064 31.6189C84.4649 31.6189 87.4301 31.6274 90.3835 31.6189C91.6833 31.6189 92.4433 32.4313 93.0475 33.3893C94.2153 35.2375 94.5707 37.3125 94.5707 39.4704C94.5707 42.9603 94.6367 46.4502 94.5386 49.9367C94.5201 51.6688 94.063 53.3679 93.21 54.8754C92.3806 56.3107 91.245 56.9826 89.6557 56.986C84.2161 56.9961 78.7747 56.9657 73.3351 57.0012C71.1856 57.0147 70.1515 55.676 69.3103 53.9953C68.5893 52.555 68.6333 50.9929 68.6198 49.4612C68.6012 45.213 68.5436 40.9598 68.7433 36.7201C68.8398 34.6671 69.8282 32.8274 71.7458 31.7526C72.2079 31.4937 72.8916 31.5834 73.4738 31.5834C76.1514 31.5698 78.8289 31.5834 81.5064 31.5834V31.6189ZM81.5166 34.3269H73.308C71.9743 34.3269 71.1077 35.1038 71.1077 36.4442C71.0863 41.7677 71.0863 47.0905 71.1077 52.4129C71.1077 53.7533 71.954 54.4997 73.269 54.4997C78.883 54.4997 84.497 54.4862 90.111 54.5149C90.9014 54.5149 91.4328 54.2306 91.6139 53.5147C91.8627 52.5313 92.1217 51.5192 92.1437 50.5139C92.2131 47.5588 92.2046 44.5986 92.1572 41.6435C92.1268 39.7429 91.988 37.8439 91.8712 35.9483C91.8069 34.9531 91.069 34.3269 90.0636 34.3269H81.5166Z" fill="#0971B8"/>
<path d="M52.3984 31.6729H55.5871V32.6088C55.5871 40.379 55.5735 48.1492 55.604 55.9178C55.604 56.7319 55.3637 56.9976 54.5614 57.001C52.3984 57.001 52.3984 57.0348 52.3984 54.86V31.6729Z" fill="#0971B8"/>
<path d="M57.4609 45.257V42.6709H66.575V45.257H57.4609Z" fill="#0971B8"/>
</svg>
