<svg width="20" height="20" viewBox="0 0 20 20" fill="none" xmlns="http://www.w3.org/2000/svg">
<path d="M17.9438 2.05616C15.2024 -0.685388 10.7417 -0.685388 8.00016 2.05616C6.97982 3.07647 6.30611 4.3642 6.05209 5.77974C5.82775 7.02853 5.94158 8.29848 6.37966 9.47707L0 15.8567V19.1713L7.96934 11.2021L8.79786 12.0306L0.828747 20H6.14365V18.3427H7.80091V16.6854H9.45832V14.6849L10.5229 13.6203C11.7015 14.0585 12.9714 14.1722 14.2201 13.948C15.6358 13.694 16.9233 13.0203 17.9438 11.9998C20.6854 9.25828 20.6854 4.79752 17.9438 2.05616H17.9438ZM15.8723 6.61365C15.1858 7.30013 14.0728 7.30013 13.3864 6.61365C12.6998 5.92712 12.6998 4.81416 13.3864 4.12768C14.0728 3.4412 15.1858 3.4412 15.8723 4.12768C16.5588 4.81416 16.5586 5.92712 15.8723 6.61361V6.61365Z" fill="#74BDCB"/>
</svg>
